<?xml version="1.0" standalone="no"?>
<!DOCTYPE svg PUBLIC "-//W3C//DTD SVG 20010904//EN"
 "http://www.w3.org/TR/2001/REC-SVG-20010904/DTD/svg10.dtd">
<svg version="1.0" xmlns="http://www.w3.org/2000/svg"
 width="512.000000pt" height="512.000000pt" viewBox="0 0 512.000000 512.000000"
 preserveAspectRatio="xMidYMid meet">

<g transform="translate(0.000000,512.000000) scale(0.100000,-0.100000)"
fill="#000000" stroke="none">
<path d="M2395 5114 c-236 -23 -385 -50 -554 -99 -565 -164 -1067 -532 -1400
-1025 -80 -118 -168 -270 -156 -270 8 0 422 337 431 351 4 7 152 -134 364
-346 l357 -357 605 759 606 758 353 39 c195 21 367 41 383 45 53 13 -230 88
-459 122 -124 18 -439 32 -530 23z"/>
<path d="M3672 3377 l-832 -832 0 -1264 0 -1263 58 7 c367 44 749 188 1075
405 548 365 941 931 1081 1561 46 208 60 338 60 569 0 231 -14 361 -60 569
-61 275 -195 594 -344 821 -69 105 -187 260 -198 260 -4 0 -382 -375 -840
-833z"/>
<path d="M368 3313 l-257 -3 -16 -52 c-23 -77 -62 -270 -76 -378 -17 -126 -17
-499 0 -620 59 -433 187 -777 416 -1120 475 -714 1286 -1145 2139 -1139 78 1
165 4 195 7 l54 7 -368 363 -368 363 27 67 26 67 -74 68 -74 67 39 85 c21 47
39 91 39 98 0 6 -301 313 -670 682 l-670 670 -2 385 -3 385 -50 0 c-27 1 -166
-1 -307 -2z"/>
</g>
</svg>
